<?xml version="1.0" encoding="UTF-8"?>
<svg version="1.1" xmlns="http://www.w3.org/2000/svg" width="1536" height="1024">
<path d="M0 0 C506.88 0 1013.76 0 1536 0 C1536 337.92 1536 675.84 1536 1024 C1029.12 1024 522.24 1024 0 1024 C0 686.08 0 348.16 0 0 Z " fill="#FDFDFD" transform="translate(0,0)"/>
<path d="M0 0 C1.46167603 0.80606689 1.46167603 0.80606689 2.95288086 1.62841797 C3.96745361 2.19189941 4.98202637 2.75538086 6.02734375 3.3359375 C7.00517822 3.87750488 7.9830127 4.41907227 8.99047852 4.97705078 C19.9446659 11.05902367 30.87242214 17.1772447 41.6418457 23.58154297 C47.49052617 27.04925129 53.41100223 30.38256805 59.33984375 33.7109375 C69.28743345 39.30439665 79.10370032 45.08765282 88.85009766 51.02392578 C90.85850566 52.23419542 92.88091095 53.41396057 94.9140625 54.58203125 C103.37500881 59.5312507 110.45275984 64.87380362 114.02734375 74.3359375 C114.33984375 76.8046875 114.33984375 76.8046875 114.02734375 79.3359375 C112.4375 81.01171875 112.4375 81.01171875 110.08984375 82.6484375 C104.89645758 86.5342428 100.22105099 90.79884554 95.52734375 95.2734375 C90.93080968 99.6452499 86.33804109 104.00281948 81.58984375 108.2109375 C78.29312298 111.14011845 75.17427865 114.18403059 72.08984375 117.3359375 C67.88965156 121.59528733 63.4282029 125.31846743 58.7578125 129.046875 C55.05582582 132.15040032 51.72371268 135.55767332 48.34765625 139.0078125 C45.76562333 141.59853913 43.0660104 143.98235266 40.2890625 146.359375 C37.31348646 148.95979206 34.42327584 151.64747641 31.52734375 154.3359375 C25.19379227 160.20588136 18.83700728 166.01588787 12.02734375 171.3359375 C2.93562366 167.1597408 -4.04076181 158.38251401 -10.97265625 151.3359375 C-13.19883358 152.38947821 -14.84345246 153.20673371 -16.59765625 154.9609375 C-17.05140625 155.4146875 -17.50515625 155.8684375 -17.97265625 156.3359375 C-18.63265625 156.3359375 -19.29265625 156.3359375 -19.97265625 156.3359375 C-19.97265625 156.9959375 -19.97265625 157.6559375 -19.97265625 158.3359375 C-21.48169502 159.68967714 -23.05678323 160.97037151 -24.66015625 162.2109375 C-25.53027344 162.88898438 -26.40039062 163.56703125 -27.296875 164.265625 C-28.17988281 164.94882812 -29.06289063 165.63203125 -29.97265625 166.3359375 C-31.64156635 167.66646169 -33.3089182 168.99895161 -34.97265625 170.3359375 C-33.63109994 173.32525914 -32.15512748 175.39560801 -29.82739258 177.69238281 C-29.18945267 178.32694397 -28.55151276 178.96150513 -27.89424133 179.61529541 C-27.20468857 180.29138855 -26.5151358 180.96748169 -25.8046875 181.6640625 C-25.09164963 182.3718988 -24.37861176 183.07973511 -23.64396667 183.809021 C-21.36239431 186.07279522 -19.07427283 188.32979421 -16.78515625 190.5859375 C-14.5147175 192.82860256 -12.24580696 195.07275909 -9.97990417 197.32000732 C-8.57136594 198.71646151 -7.16016499 200.11023717 -5.74580383 201.50079346 C-1.80751403 205.39973707 1.92664944 209.40989037 5.53340149 213.61810303 C7.27463777 215.62029266 9.11348986 217.49863777 11.02734375 219.3359375 C13.99851849 218.02055913 15.85755901 216.69215084 17.9453125 214.2109375 C18.47286133 213.59186523 19.00041016 212.97279297 19.54394531 212.33496094 C20.0953418 211.6752832 20.64673828 211.01560547 21.21484375 210.3359375 C22.37939561 208.96545481 23.54476219 207.59566402 24.7109375 206.2265625 C25.56147705 205.22399414 25.56147705 205.22399414 26.42919922 204.20117188 C28.49852097 201.7860148 30.63109766 199.43280271 32.77734375 197.0859375 C35.78494983 193.77154464 38.65164071 190.37934667 41.46484375 186.8984375 C44.55883089 183.07138023 47.75564925 179.39312877 51.08984375 175.7734375 C56.46647722 169.92312844 61.37082723 163.76962641 66.23046875 157.48828125 C66.9471875 156.57175781 67.66390625 155.65523437 68.40234375 154.7109375 C69.04945313 153.87304688 69.6965625 153.03515625 70.36328125 152.171875 C71.18699219 151.26308594 71.18699219 151.26308594 72.02734375 150.3359375 C72.68734375 150.3359375 73.34734375 150.3359375 74.02734375 150.3359375 C74.27742187 149.77648437 74.5275 149.21703125 74.78515625 148.640625 C79.11943503 140.59903858 86.4630482 133.60669397 92.43188477 126.68798828 C94.97882877 123.73523254 97.50683988 120.77050856 99.9921875 117.765625 C100.47123535 117.18925293 100.9502832 116.61288086 101.44384766 116.01904297 C102.75308756 114.44053652 104.05644387 112.85715534 105.359375 111.2734375 C107.41382311 109.011439 109.37671482 107.11039406 111.6940918 105.15234375 C112.31970505 104.6219751 112.9453183 104.09160645 113.58988953 103.54516602 C114.06424942 103.14612061 114.53860931 102.7470752 115.02734375 102.3359375 C115.09692004 115.62727018 115.15019393 128.91855938 115.18278027 142.21003723 C115.19842176 148.3821151 115.21963264 154.55406817 115.25366211 160.72607422 C115.28630918 166.68478621 115.30420818 172.64337831 115.31197548 178.60217285 C115.31750935 180.87310676 115.32831563 183.14403426 115.34453392 185.41491699 C115.36637888 188.60097321 115.36930767 191.78653693 115.36791992 194.97265625 C115.38409866 196.37420204 115.38409866 196.37420204 115.40060425 197.80406189 C115.35751514 206.9741509 112.77572951 213.43683245 106.4453125 220.16650391 C102.09455489 224.07006127 97.14392182 226.74847373 92.02734375 229.5234375 C90.29279159 230.49340035 88.55825413 231.46339134 86.82484436 232.43539429 C85.05364 233.42636732 83.27872065 234.4104349 81.50341797 235.39404297 C76.15435126 238.38227703 70.87309938 241.48331132 65.58984375 244.5859375 C63.60190662 245.74798473 61.61363214 246.90945506 59.625 248.0703125 C58.20598389 248.89885742 58.20598389 248.89885742 56.75830078 249.74414062 C52.68668271 252.11737054 48.60748964 254.47740884 44.52734375 256.8359375 C37.23089774 261.05688553 29.93839876 265.28457461 22.65234375 269.5234375 C21.6247998 270.12003174 20.59725586 270.71662598 19.53857422 271.33129883 C14.1697107 274.45972611 8.88206832 277.66851985 3.65234375 281.0234375 C-4.53746645 286.09590615 -13.31379102 289.10705596 -22.96166992 286.87597656 C-29.75431931 284.72829472 -35.61670942 281.33431338 -41.72265625 277.7109375 C-43.44594 276.70218303 -45.16922489 275.6934305 -46.89256287 274.68476868 C-48.70055865 273.62447897 -50.50611011 272.56013646 -52.31103516 271.49462891 C-55.92500876 269.36187293 -59.54756698 267.24403908 -63.171875 265.12890625 C-72.80067063 259.50545765 -82.41789585 253.86286669 -92 248.16015625 C-92.57084824 247.82056381 -93.14169647 247.48097137 -93.72984314 247.13108826 C-96.54921304 245.45380434 -99.36813652 243.77578074 -102.1862793 242.09643555 C-110.55413423 237.12831238 -119.0050385 232.32067476 -127.55419922 227.67089844 C-137.90202465 221.9455969 -143.66895831 216.67988091 -147.97265625 205.3359375 C-148.74414885 200.9870913 -148.77642495 196.77505772 -148.71728516 192.36645508 C-148.72458649 191.13070236 -148.73188782 189.89494965 -148.7394104 188.62174988 C-148.75273631 185.2698925 -148.73956465 181.92030169 -148.71274614 178.56867051 C-148.68989725 175.04152436 -148.69834855 171.51442744 -148.70223999 167.98722839 C-148.70399841 162.07047381 -148.6819978 156.15418081 -148.64501953 150.23754883 C-148.60263609 143.41743294 -148.59568116 136.59799085 -148.60814345 129.77776986 C-148.6195674 123.18571275 -148.6082004 116.59389052 -148.58579636 110.00186729 C-148.57655856 107.20980123 -148.57473281 104.41788009 -148.57896805 101.62580299 C-148.58346589 97.72269607 -148.55439516 93.82021891 -148.52197266 89.91723633 C-148.52692749 88.77155182 -148.53188232 87.62586731 -148.5369873 86.44546509 C-148.40076234 76.13898596 -145.40979708 68.97520022 -138.35546875 61.47021484 C-134.01653638 57.58384734 -129.07144462 54.91365644 -123.97265625 52.1484375 C-122.23177903 51.17533051 -120.49091639 50.20219551 -118.75120544 49.227005 C-116.97747967 48.23488801 -115.20006034 47.24962781 -113.42236328 46.26464844 C-108.20443996 43.34733816 -103.06007305 40.30861489 -97.91015625 37.2734375 C-88.86655366 31.97329641 -79.73990088 26.83723647 -70.57617188 21.74829102 C-61.28037468 16.561242 -52.12831041 11.14699515 -43.00463867 5.66455078 C-28.43877184 -3.05753838 -16.09678683 -8.89406065 0 0 Z " fill="#516BDB" transform="translate(462.97265625,362.6640625)"/>
<path d="M0 0 C11.33349349 9.60198754 19.13620744 22.06799331 21.125 36.8828125 C22.13233154 52.03295533 21.83663557 65.80363104 13.6875 79.0703125 C13.171875 79.9984375 12.65625 80.9265625 12.125 81.8828125 C13.37435794 86.0030355 16.73779709 88.71999699 19.75 91.6328125 C20.265625 92.13941406 20.78125 92.64601563 21.3125 93.16796875 C22.57883339 94.41085152 23.8513144 95.64746526 25.125 96.8828125 C23.66729878 100.20188606 21.82993736 102.53354639 19.3125 105.1328125 C18.31283203 106.19242188 18.31283203 106.19242188 17.29296875 107.2734375 C15.125 108.8828125 15.125 108.8828125 12.6796875 109.390625 C9.14611459 108.68823283 7.61737642 107.01135446 5.0625 104.5078125 C1.11469186 100.33107892 1.11469186 100.33107892 -3.875 97.8828125 C-7.04641857 99.09502452 -7.04641857 99.09502452 -10.375 101.0703125 C-25.26998219 108.96995548 -42.47712294 110.44632085 -58.82421875 105.98046875 C-74.65297886 100.28535788 -86.41972406 89.86157735 -93.875 74.8828125 C-95.54718977 70.60995191 -96.8424497 66.35105102 -97.875 61.8828125 C-98.06578125 61.12097656 -98.2565625 60.35914063 -98.453125 59.57421875 C-101.36261147 41.01277264 -97.37926305 24.28495773 -86.875 8.8828125 C-78.5180118 -1.86424136 -65.23853302 -8.84155857 -52.08203125 -11.73046875 C-33.39291422 -13.98408944 -15.49178818 -11.40835488 0 0 Z " fill="#27235E" transform="translate(740.875,436.1171875)"/>
<path d="M0 0 C9.66419978 8.09095796 19.72987126 20.46297964 22.45703125 33.046875 C21.35424946 37.14634645 17.91091077 39.63700729 14.83203125 42.359375 C14.0277771 43.08133057 14.0277771 43.08133057 13.20727539 43.81787109 C12.130077 44.78287814 11.05043968 45.74517032 9.96826172 46.70458984 C8.63476439 47.88901122 7.31257405 49.08613645 5.9921875 50.28515625 C0.84004934 54.9192023 0.84004934 54.9192023 -2.54296875 56.046875 C-2.83429688 55.08007812 -3.125625 54.11328125 -3.42578125 53.1171875 C-7.67105372 39.45634385 -13.41366019 27.60540977 -26.2734375 20.1796875 C-37.46658716 14.59274533 -49.72193876 12.96945832 -61.91796875 16.171875 C-67.72585177 18.23558978 -73.85010281 21.30965597 -78.203125 25.734375 C-79.54296875 27.046875 -79.54296875 27.046875 -81.54296875 27.046875 C-81.81109375 27.60632813 -82.07921875 28.16578125 -82.35546875 28.7421875 C-83.63329681 31.22218275 -85.06783898 33.55429172 -86.54296875 35.921875 C-92.62282344 46.02538048 -94.46330417 58.00659211 -91.70703125 69.546875 C-88.99360485 77.85105245 -85.0752861 84.33374683 -79.54296875 91.046875 C-79.01445312 91.71460938 -78.4859375 92.38234375 -77.94140625 93.0703125 C-75.05668306 96.60294143 -71.91806855 99.48950103 -68.40625 102.38574219 C-66.57497874 104.01833779 -65.04828988 105.70811402 -63.47265625 107.5859375 C-58.95183276 112.82155361 -54.02945652 117.63128698 -49.10546875 122.484375 C-47.29202943 124.27246926 -45.48070174 126.06270857 -43.671875 127.85546875 C-42.8785376 128.63720459 -42.0852002 129.41894043 -41.26782227 130.22436523 C-39.54296875 132.046875 -39.54296875 132.046875 -39.54296875 133.046875 C-57.25123676 136.94709744 -76.07972498 131.17715601 -91.1015625 121.7734375 C-95.61377964 118.58239754 -99.60719726 114.91605137 -103.54296875 111.046875 C-104.17074219 110.43199219 -104.79851562 109.81710937 -105.4453125 109.18359375 C-116.87368246 97.08144234 -124.1591108 79.68071969 -124.54296875 63.046875 C-124.59324219 61.98210937 -124.64351563 60.91734375 -124.6953125 59.8203125 C-125.31117067 37.60014955 -116.80088967 19.77933624 -101.79296875 3.796875 C-96.30898464 -1.50005849 -90.21538595 -5.31657645 -83.54296875 -8.953125 C-82.20105469 -9.695625 -82.20105469 -9.695625 -80.83203125 -10.453125 C-54.64797997 -23.66309682 -22.49749942 -17.27918542 0 0 Z " fill="#FCFCFD" transform="translate(496.54296875,445.953125)"/>
<path d="M0 0 C0.85980469 0.64453125 1.71960937 1.2890625 2.60546875 1.953125 C2.60546875 2.613125 2.60546875 3.273125 2.60546875 3.953125 C3.19199219 4.17742187 3.77851562 4.40171875 4.3828125 4.6328125 C7.2616738 6.34292695 8.40346823 8.24387137 10.16796875 11.078125 C10.74675781 11.98820312 11.32554688 12.89828125 11.921875 13.8359375 C15.89756068 21.19695182 17.16036755 27.32383441 17.10546875 35.703125 C17.10192383 36.67378906 17.09837891 37.64445312 17.09472656 38.64453125 C16.91523019 46.41750478 15.61402752 52.19450847 11.60546875 58.953125 C11.02796875 60.025625 10.45046875 61.098125 9.85546875 62.203125 C2.80058488 70.82576084 -6.13981103 77.35230848 -17.39453125 78.953125 C-20.17759807 79.07220149 -22.92461227 79.13817784 -25.70703125 79.140625 C-26.42826172 79.15287109 -27.14949219 79.16511719 -27.89257812 79.17773438 C-39.85306467 79.20991506 -49.50816895 74.50150894 -58.24609375 66.46875 C-67.29645498 55.87159976 -69.15421594 43.59688284 -68.56933594 30.11279297 C-67.69783387 19.34560396 -62.84863422 9.91687487 -54.91796875 2.69921875 C-38.44587087 -10.18889242 -17.75155174 -10.70404271 0 0 Z " fill="#26225D" transform="translate(1057.39453125,465.046875)"/>
<path d="M0 0 C9.76559454 5.82615068 15.11855165 14.15829147 18 25 C18.18304687 25.61230469 18.36609375 26.22460938 18.5546875 26.85546875 C20.59897115 36.70030845 18.74845326 45.86314517 15 55 C12 55 12 55 10.2824707 53.62304688 C9.66976318 52.99462891 9.05705566 52.36621094 8.42578125 51.71875 C7.75869141 51.04199219 7.09160156 50.36523438 6.40429688 49.66796875 C5.71400391 48.95253906 5.02371094 48.23710937 4.3125 47.5 C3.2596582 46.42685547 3.2596582 46.42685547 2.18554688 45.33203125 C0.45013639 43.56120423 -1.2779073 41.78376544 -3 40 C-6.63303084 41.69586126 -8.94549046 43.73800488 -11.75 46.625 C-12.54921875 47.44226563 -13.3484375 48.25953125 -14.171875 49.1015625 C-14.77515625 49.72804688 -15.3784375 50.35453125 -16 51 C-10.72898586 57.41069287 -4.90871848 63.18590512 1 69 C-4.84116305 75.06251239 -10.53512195 75.78041583 -18.8125 76.1875 C-30.27134379 75.94463433 -39.24072222 72.17586231 -47.3125 63.9375 C-54.94665471 54.80433111 -57.80505783 42.71570999 -57 31 C-55.83041745 20.82463182 -51.78583583 10.90760706 -44 4 C-30.69125003 -5.40079729 -14.83417114 -7.29832583 0 0 Z " fill="#FCFBFC" transform="translate(721,448)"/>
<path d="M0 0 C6.6 0 13.2 0 20 0 C20.01458252 1.46751709 20.02916504 2.93503418 20.04418945 4.44702148 C20.10240737 9.92089519 20.17963888 15.39436762 20.26245117 20.86791992 C20.2955902 23.23146016 20.32365602 25.59507745 20.34643555 27.95874023 C20.38018423 31.36735694 20.43251129 34.77527463 20.48828125 38.18359375 C20.49467117 39.23083115 20.5010611 40.27806854 20.50764465 41.35704041 C20.66038477 49.0762253 21.45883911 55.87241737 26.4375 62 C31.55284889 65.99246743 37.74864827 65.49065842 44 65 C49.02011005 63.32662998 52.17730278 60.42468953 55 56 C58.00945132 49.46441033 58.46647434 43.86059205 58.51171875 36.71875 C58.52966995 35.66465942 58.54762115 34.61056885 58.56611633 33.52453613 C58.61996756 30.18306385 58.65403452 26.84173235 58.6875 23.5 C58.72069526 21.22393885 58.75518694 18.94789622 58.79101562 16.671875 C58.87567973 11.11468531 58.94261103 5.55753557 59 0 C65.6 0 72.2 0 79 0 C79 27.06 79 54.12 79 82 C72.4 82 65.8 82 59 82 C58.67 78.7 58.34 75.4 58 72 C57.38125 72.886875 56.7625 73.77375 56.125 74.6875 C52.04483242 79.63528942 45.96512145 82.01162618 40 84 C29.23291817 84.62908793 19.59047483 84.87890986 10.75 77.9375 C3.56524176 71.13917298 0.40528228 61.78842516 -0.17483521 52.0715332 C-0.23015727 48.7425091 -0.22502653 45.41919235 -0.1953125 42.08984375 C-0.1924826 40.88179581 -0.18965271 39.67374786 -0.18673706 38.42909241 C-0.17560767 34.59845772 -0.15051623 30.76806315 -0.125 26.9375 C-0.11496085 24.32877944 -0.10583664 21.72005518 -0.09765625 19.11132812 C-0.07569201 12.74079393 -0.04121209 6.37043758 0 0 Z " fill="#26235E" transform="translate(779,460)"/>
<path d="M0 0 C7.59 0 15.18 0 23 0 C23.83789062 2.41183594 24.67578125 4.82367188 25.5390625 7.30859375 C28.93270671 16.97935759 32.63343 26.52217607 36.375 36.0625 C37.02238879 37.71930206 37.6695253 39.37620272 38.31640625 41.03320312 C39.87471508 45.02327149 41.43637286 49.01201294 43 53 C45.19222003 50.80777997 45.72647569 49.4118781 46.75585938 46.52197266 C47.08960571 45.59405914 47.42335205 44.66614563 47.76721191 43.71011353 C48.12246948 42.70491669 48.47772705 41.69971985 48.84375 40.6640625 C49.39838928 39.11771622 49.39838928 39.11771622 49.9642334 37.54013062 C51.14816555 34.2369699 52.32450437 30.93117147 53.5 27.625 C54.67657205 24.32637049 55.85476323 21.02833835 57.0357666 17.73129272 C57.77094275 15.67780132 58.50337732 13.6233259 59.23278809 11.56777954 C59.56653442 10.63356171 59.90028076 9.69934387 60.24414062 8.73681641 C60.53567017 7.91678131 60.82719971 7.09674622 61.12756348 6.25186157 C61.95608097 4.11336019 62.97436562 2.05126876 64 0 C70.93 0 77.86 0 85 0 C81.62528726 11.24904247 81.62528726 11.24904247 80.10229492 15.10400391 C79.59112373 16.40683823 79.59112373 16.40683823 79.06962585 17.73599243 C78.71020401 18.64038055 78.35078217 19.54476868 77.98046875 20.4765625 C77.59941483 21.44548431 77.2183609 22.41440613 76.82575989 23.41268921 C75.61679197 26.48496742 74.40244433 29.55508089 73.1875 32.625 C71.59578426 36.65811781 70.00636119 40.69213481 68.41796875 44.7265625 C67.83607788 46.20319366 67.83607788 46.20319366 67.24243164 47.70965576 C65.10695384 53.14084507 63.01021207 58.58315149 60.98046875 64.0546875 C57.19101275 74.26625843 53.14197412 84.37634535 49.125 94.5 C48.3332003 96.49864522 47.5415328 98.49734281 46.75 100.49609375 C44.83509443 105.33143062 42.91749693 110.16568702 41 115 C33.74 115 26.48 115 19 115 C22.29677419 105.10967742 22.29677419 105.10967742 24.8671875 100.3828125 C31.33471816 87.44118667 31.33471816 87.44118667 30.66015625 73.421875 C28.46293898 67.63149501 25.67473005 62.14945022 22.82128906 56.65869141 C19.8497342 50.83051135 17.53527618 44.71600862 15.1348877 38.6368103 C13.79170632 35.24890094 12.41339228 31.87536249 11.0390625 28.5 C8.41211588 22.02476337 5.7919004 15.5468399 3.1875 9.0625 C2.85596924 8.24015869 2.52443848 7.41781738 2.18286133 6.57055664 C0 1.1178948 0 1.1178948 0 0 Z " fill="#25225D" transform="translate(1143,460)"/>
<path d="M0 0 C21.78 0 43.56 0 66 0 C66 16.02002879 66 16.02002879 60.25 21.875 C59.0426202 23.22783929 57.83826396 24.58338223 56.63671875 25.94140625 C56.02489746 26.61445801 55.41307617 27.28750977 54.78271484 27.98095703 C52.01470883 31.11590769 49.53934175 34.44591083 47.0625 37.8125 C46.58619141 38.45300293 46.10988281 39.09350586 45.61914062 39.75341797 C44.07475805 41.83219783 42.53690153 43.91568368 41 46 C40.37786621 46.84224121 39.75573242 47.68448242 39.11474609 48.55224609 C35.06936556 54.02963741 31.03379727 59.51403572 27 65 C40.2 65 53.4 65 67 65 C67 70.61 67 76.22 67 82 C44.89 82 22.78 82 0 82 C0 64.83180443 0 64.83180443 5.25 59.5625 C6.36101284 58.31772194 7.46899414 57.0702327 8.57421875 55.8203125 C9.14446777 55.19543945 9.7147168 54.57056641 10.30224609 53.92675781 C13.09862148 50.75318943 15.56579623 47.34822339 18.0625 43.9375 C22.84064982 37.50039038 27.74547035 31.17466449 32.72265625 24.890625 C34.51306783 22.61806141 36.26413054 20.31449262 38 18 C25.46 17.67 12.92 17.34 0 17 C0 11.39 0 5.78 0 0 Z " fill="#26225E" transform="translate(914,460)"/>
<path d="M0 0 C1.40765625 -0.00386719 1.40765625 -0.00386719 2.84375 -0.0078125 C5.5 0.125 5.5 0.125 9.5 1.125 C9.5 7.725 9.5 14.325 9.5 21.125 C0.375 20.9375 0.375 20.9375 -2.46533203 20.85473633 C-7.5744602 20.80413474 -11.09171048 21.24973234 -15.5 24.125 C-19.21023515 28.23634165 -20.61274899 30.65044013 -20.70532227 36.12548828 C-20.72526749 37.16641632 -20.74521271 38.20734436 -20.76576233 39.27981567 C-20.78247482 40.40692963 -20.79918732 41.53404358 -20.81640625 42.6953125 C-20.83718735 43.84667694 -20.85796844 44.99804138 -20.87937927 46.18429565 C-20.94491665 49.8728014 -21.00377928 53.56138003 -21.0625 57.25 C-21.10568123 59.74610138 -21.14929538 62.2421953 -21.19335938 64.73828125 C-21.30060235 70.86711226 -21.40185801 76.99601677 -21.5 83.125 C-28.43 83.125 -35.36 83.125 -42.5 83.125 C-42.5 56.065 -42.5 29.005 -42.5 1.125 C-36.23 1.125 -29.96 1.125 -23.5 1.125 C-23.17 4.755 -22.84 8.385 -22.5 12.125 C-20.953125 10.2378125 -20.953125 10.2378125 -19.375 8.3125 C-13.88989825 2.04064629 -8.16886589 -0.02244194 0 0 Z " fill="#26225D" transform="translate(1130.5,458.875)"/>
<path d="M0 0 C6.37821908 6.19423199 8.42312637 11.97908231 9.03125 20.796875 C8.95958342 28.14269969 6.89754882 35.42223606 2 41 C-0.22023727 42.62997907 -2.50086301 43.85204477 -5 45 C-5.928125 45.433125 -6.85625 45.86625 -7.8125 46.3125 C-13.97359619 47.64136389 -19.77355127 47.03679834 -25.3125 43.9375 C-31.32474865 39.69856106 -34.4950751 33.64881264 -35.78125 26.48828125 C-36.48194956 18.51782372 -35.85227106 10.58732556 -31 4 C-23.10887345 -4.97265151 -10.09846245 -6.88531531 0 0 Z " fill="#FBFBFC" transform="translate(1045,480)"/>
<path d="M0 0 C6.93 0 13.86 0 21 0 C21 27.06 21 54.12 21 82 C14.07 82 7.14 82 0 82 C0 54.94 0 27.88 0 0 Z " fill="#2A2660" transform="translate(877,460)"/>
<path d="M0 0 C2.52943577 1.84580448 3.90729994 2.87709987 5.3125 5.6875 C5.89275783 9.924177 5.78168085 13.51454788 4.1875 17.5 C1.71546684 20.38403869 -0.23940478 22.027306 -3.6875 23.6875 C-8.29097439 24.0284981 -11.69790073 23.29810381 -15.625 20.875 C-18.21932576 18.12344238 -19.59724641 16.11072975 -19.83984375 12.28515625 C-19.46405822 7.85088696 -19.16334674 5.32196232 -16.4375 1.6875 C-10.64606786 -2.52445065 -6.5874583 -3.2171308 0 0 Z " fill="#F7FAFD" transform="translate(380.6875,426.3125)"/>
<path d="M0 0 C3.5165686 2.00946777 5.69336274 4.08008821 7 8 C7.39544498 12.19171681 7.26960901 14.48075302 5.3125 18.25 C1.9735971 22.22058723 -0.23663163 23.80763254 -5.4375 24.375 C-10.39454782 23.85320549 -13.59732112 22.6364587 -16.875 18.8125 C-18.36309728 15.09225679 -18.60172644 11.95534846 -18 8 C-16.50282018 4.79175753 -14.72481464 2.27067886 -12 0 C-7.80720942 -1.39759686 -4.26703601 -1.07584554 0 0 Z " fill="#292560" transform="translate(893,421)"/>
<path d="M0 0 C0.99 0.495 0.99 0.495 2 1 C-4.5014918 5.4643577 -10.87080777 9.62301421 -18 13 C-19.67284302 13.98963328 -21.33914483 14.99037736 -23 16 C-24.60924982 16.93051748 -26.22130856 17.85619167 -27.8359375 18.77734375 C-28.73570312 19.29103516 -29.63546875 19.80472656 -30.5625 20.33398438 C-31.490625 20.86314453 -32.41875 21.39230469 -33.375 21.9375 C-34.29539062 22.46279297 -35.21578125 22.98808594 -36.1640625 23.52929688 C-37.06640625 24.04427734 -37.96875 24.55925781 -38.8984375 25.08984375 C-39.7759668 25.59112793 -40.65349609 26.09241211 -41.55761719 26.60888672 C-43.04021517 27.45333327 -44.52472884 28.29444391 -46.01269531 29.12939453 C-48.73695726 30.6622599 -51.36790286 32.24801895 -53.9609375 33.99609375 C-58.02400129 36.67520908 -62.2901246 38.8559945 -66.609375 41.08789062 C-69.96791411 42.8453448 -72.99092401 44.70827757 -76 47 C-77.65784978 47.8507387 -79.32543552 48.68265305 -81 49.5 C-88.01210476 53.22843357 -93.37640687 58.48436416 -99 64 C-99 59.73509928 -97.09668209 58.19126557 -94.29638672 55.11816406 C-90.05977229 51.21035344 -85.09661497 48.62287935 -80.0625 45.875 C-78.31492732 44.89511586 -76.56736801 43.91520626 -74.82087708 42.93339539 C-73.03813452 41.93307305 -71.25206954 40.93886804 -69.46582031 39.94482422 C-64.24623979 37.01588801 -59.09430687 33.97510644 -53.9375 30.9375 C-44.66314552 25.50340389 -35.31093917 20.21963261 -25.91357422 15.00146484 C-18.83665824 11.06284086 -11.83687115 7.01431021 -4.94750977 2.75488281 C-3.3325759 1.77763443 -1.67032314 0.87923058 0 0 Z " fill="#2298EB" transform="translate(419,369)"/>
<path d="M0 0 C0.33 0 0.66 0 1 0 C1.06957629 13.29133268 1.12285018 26.58262188 1.15543652 39.87409973 C1.17107801 46.0461776 1.19228889 52.21813067 1.22631836 58.39013672 C1.25896543 64.34884871 1.27686443 70.30744081 1.28463173 76.26623535 C1.2901656 78.53716926 1.30097188 80.80809676 1.31719017 83.07897949 C1.33903513 86.26503571 1.34196392 89.45059943 1.34057617 92.63671875 C1.351362 93.57108261 1.36214783 94.50544647 1.3732605 95.46812439 C1.34579651 101.31292481 0.49585193 105.68557202 -2 111 C-2.99 111.495 -2.99 111.495 -4 112 C-3.49264506 109.20954784 -2.8715873 106.61369318 -1.97512817 103.91685486 C-0.68351278 99.41383108 -0.73458232 95.0482745 -0.77294922 90.39282227 C-0.77265717 89.45545731 -0.77236511 88.51809235 -0.77206421 87.55232239 C-0.77345049 84.47358743 -0.78897861 81.39509861 -0.8046875 78.31640625 C-0.80842012 76.17406852 -0.81126592 74.03172908 -0.81326294 71.88938904 C-0.82087974 66.26534264 -0.84051146 60.64140041 -0.8626709 55.01739502 C-0.88317143 49.27267872 -0.89227365 43.5279455 -0.90234375 37.78320312 C-0.9237592 26.52208241 -0.95892543 15.26106619 -1 4 C-4.96 8.29 -8.92 12.58 -13 17 C-13 12.71066403 -10.43797802 10.87354581 -7.625 7.9375 C-7.11710938 7.39544922 -6.60921875 6.85339844 -6.0859375 6.29492188 C-4.08646546 4.1665365 -2.06495391 2.06495391 0 0 Z " fill="#913FB7" transform="translate(577,465)"/>
<path d="M0 0 C0.66 0.33 1.32 0.66 2 1 C-1.01598556 5.98293267 -4.71560735 10.07543445 -8.64453125 14.36328125 C-10.84290185 16.82414387 -12.90245889 19.34106824 -14.9375 21.9375 C-18.57997532 26.56286549 -22.49766155 30.87399444 -26.484375 35.203125 C-29.75858363 38.84339422 -32.83052985 42.62871263 -35.91015625 46.43359375 C-40.95310825 52.62652733 -46.27550802 58.43210506 -52 64 C-52 59.69907713 -49.40498045 57.9208937 -46.5625 55 C-41.86868809 50.05761906 -37.47084629 44.98726885 -33.203125 39.66796875 C-30.93072182 36.91610462 -28.55305169 34.30261857 -26.125 31.6875 C-21.83031198 27.02659827 -17.92369843 22.1613762 -14.05761719 17.14819336 C-10.46853297 12.52073757 -6.67052226 8.17970719 -2.6796875 3.890625 C-0.9409778 2.09839372 -0.9409778 2.09839372 0 0 Z " fill="#7B43BD" transform="translate(535,513)"/>
<path d="M0 0 C0.66 0.33 1.32 0.66 2 1 C-4.5014918 5.4643577 -10.87080777 9.62301421 -18 13 C-19.67339914 13.98869262 -21.33870246 14.99110542 -23 16 C-25.69649394 17.60423422 -28.40783864 19.1810744 -31.125 20.75 C-31.84042969 21.17410156 -32.55585938 21.59820312 -33.29296875 22.03515625 C-33.98261719 22.43089844 -34.67226563 22.82664062 -35.3828125 23.234375 C-36.31697998 23.77916504 -36.31697998 23.77916504 -37.27001953 24.33496094 C-39 25 -39 25 -42 24 C-41.33170166 23.6282666 -40.66340332 23.2565332 -39.97485352 22.87353516 C-36.83623114 21.1261165 -33.69918635 19.37589154 -30.5625 17.625 C-29.43062256 16.99392334 -28.29874512 16.36284668 -27.13256836 15.71264648 C-19.65630063 11.52973005 -12.24032529 7.26425283 -4.95336914 2.75830078 C-3.33645345 1.77996081 -1.6723236 0.8802836 0 0 Z " fill="#24A2E6" transform="translate(419,369)"/>
<path d="M0 0 C0.33 0 0.66 0 1 0 C1 11.55 1 23.1 1 35 C0.67 35 0.34 35 0 35 C-0.33 24.77 -0.66 14.54 -1 4 C-4.96 8.29 -8.92 12.58 -13 17 C-13 12.71066403 -10.43797802 10.87354581 -7.625 7.9375 C-7.11710938 7.39544922 -6.60921875 6.85339844 -6.0859375 6.29492188 C-4.08646546 4.1665365 -2.06495391 2.06495391 0 0 Z " fill="#9938AB" transform="translate(577,465)"/>
<path d="M0 0 C0.69029297 -0.01224609 1.38058594 -0.02449219 2.09179688 -0.03710938 C6.47066814 -0.04956114 9.99543116 0.57722079 14.0625 2.1875 C13.0725 2.8475 12.0825 3.5075 11.0625 4.1875 C8.72236656 3.54511043 6.38998694 2.87429942 4.0625 2.1875 C-5.71896712 1.34427008 -15.78954972 3.69237074 -23.9375 9.1875 C-23.9375 8.1975 -23.9375 7.2075 -23.9375 6.1875 C-22.21148621 5.36832358 -20.4815353 4.55743984 -18.75 3.75 C-17.78707031 3.29753906 -16.82414062 2.84507812 -15.83203125 2.37890625 C-10.57372821 0.2145575 -5.63663697 0.00523365 0 0 Z " fill="#8853BE" transform="translate(447.9375,459.8125)"/>
<path d="M0 0 C-3.63729051 1.17041526 -6.95484581 0.99929544 -10.75 0.875 C-19.02077698 0.81488013 -23.96324152 2.74090934 -31 7 C-32.98451771 7.71143088 -34.98202112 8.38991336 -37 9 C-27.29235506 -1.49051953 -13.27129277 -4.42376426 0 0 Z " fill="#44C8DC" transform="translate(458,360)"/>
<path d="M0 0 C0.33 0.66 0.66 1.32 1 2 C-4.94749729 9.78422439 -10.83973911 17.27713062 -18 24 C-19.0036652 24.99632131 -20.00418113 25.99583628 -21 27 C-21.66 27.66 -22.32 28.32 -23 29 C-21.48133302 25.60256975 -19.49720998 22.98381716 -17.125 20.125 C-16.33480469 19.17238281 -15.54460938 18.21976562 -14.73046875 17.23828125 C-9.8676796 11.45183383 -4.93743585 5.72274714 0 0 Z " fill="#9F52C0" transform="translate(560,484)"/>
<path d="M0 0 C-0.87140625 0.44988281 -1.7428125 0.89976562 -2.640625 1.36328125 C-11.63632282 6.16708037 -18.78798866 11.81440628 -26 19 C-26 14.8059842 -24.35578826 13.32450061 -21.609375 10.27734375 C-18.23696762 7.33406006 -14.63378289 5.14277242 -10.75 2.9375 C-10.04037109 2.53128418 -9.33074219 2.12506836 -8.59960938 1.70654297 C-3.38716674 -1.12905558 -3.38716674 -1.12905558 0 0 Z " fill="#2389ED" transform="translate(346,414)"/>
<path d="M0 0 C0.66 0.33 1.32 0.66 2 1 C-1.05711096 5.4546474 -4.07621423 9.25871589 -8 13 C-9.4401844 14.43481058 -10.87752858 15.87247586 -12.3125 17.3125 C-13.54166667 18.54166667 -14.77083333 19.77083333 -16 21 C-16 16.58908665 -13.16025746 14.63001003 -10.25 11.625 C-9.17032439 10.49366527 -8.09217165 9.36087506 -7.015625 8.2265625 C-6.50064453 7.68418945 -5.98566406 7.14181641 -5.45507812 6.58300781 C-3.52010783 4.47791597 -1.74597499 2.26298701 0 0 Z " fill="#6942BE" transform="translate(499,556)"/>
<path d="M0 0 C3.70295197 1.51636721 5.76245642 3.69453341 8.375 6.6875 C9.15488281 7.57566406 9.93476563 8.46382812 10.73828125 9.37890625 C11.48464844 10.24386719 12.23101562 11.10882812 13 12 C13.63292969 12.73089844 14.26585937 13.46179688 14.91796875 14.21484375 C16.28587798 15.80369793 17.64417486 17.40082163 19 19 C15.8804428 17.61314777 13.74144201 15.99810509 11.328125 13.59375 C10.33232422 12.60181641 10.33232422 12.60181641 9.31640625 11.58984375 C8.63449219 10.90019531 7.95257813 10.21054687 7.25 9.5 C6.55261719 8.81035156 5.85523438 8.12070312 5.13671875 7.41015625 C4.47800781 6.74886719 3.81929688 6.08757813 3.140625 5.40625 C2.53766602 4.80103516 1.93470703 4.19582031 1.31347656 3.57226562 C0 2 0 2 0 0 Z " fill="#7152BF" transform="translate(439,559)"/>
<path d="M0 0 C0.66 0.33 1.32 0.66 2 1 C-0.75906335 5.34488013 -3.73747755 9.08517314 -7.25 12.875 C-8.58804688 14.32519531 -8.58804688 14.32519531 -9.953125 15.8046875 C-10.62859375 16.52914062 -11.3040625 17.25359375 -12 18 C-12.66 17.67 -13.32 17.34 -14 17 C-13.61142822 16.5560791 -13.22285645 16.1121582 -12.82250977 15.65478516 C-11.06699155 13.6467519 -9.31471356 11.63591735 -7.5625 9.625 C-6.95083984 8.92632813 -6.33917969 8.22765625 -5.70898438 7.5078125 C-5.12568359 6.8375 -4.54238281 6.1671875 -3.94140625 5.4765625 C-3.13231812 4.549646 -3.13231812 4.549646 -2.30688477 3.60400391 C-0.91881263 2.01950866 -0.91881263 2.01950866 0 0 Z " fill="#8C4EC1" transform="translate(535,513)"/>
<path d="M0 0 C2.9641117 2.61681796 3.8661593 4.85671466 4.28125 8.859375 C3.75468057 12.86715347 0.86008824 15.34716453 -2 18 C-2.66 17.67 -3.32 17.34 -4 17 C-3.525625 16.566875 -3.05125 16.13375 -2.5625 15.6875 C0.35218595 12.53963918 0.11044732 9.38802213 0.0625 5.3125 C0.05347656 4.31863281 0.04445313 3.32476562 0.03515625 2.30078125 C0.02355469 1.54152344 0.01195312 0.78226562 0 0 Z " fill="#278AE8" transform="translate(385,430)"/>
<path d="M0 0 C0 3.46132304 -0.35176518 3.74508628 -2.625 6.13671875 C-3.16640625 6.71357422 -3.7078125 7.29042969 -4.265625 7.88476562 C-4.83796875 8.47966797 -5.4103125 9.07457031 -6 9.6875 C-6.57234375 10.29400391 -7.1446875 10.90050781 -7.734375 11.52539062 C-9.1496339 13.02320629 -10.57397277 14.5124329 -12 16 C-12 11.68945634 -9.38987567 9.82500039 -6.5625 6.875 C-6.04623047 6.32457031 -5.52996094 5.77414062 -4.99804688 5.20703125 C-3.35015241 3.45358537 -1.70164017 1.70164017 0 0 Z " fill="#AD50B8" transform="translate(576,466)"/>
<path d="M0 0 C1.13682034 1.70523051 2.27207074 3.41151646 3.40234375 5.12109375 C3.90894531 5.88550781 4.41554688 6.64992188 4.9375 7.4375 C5.44152344 8.19933594 5.94554687 8.96117187 6.46484375 9.74609375 C7.91843924 11.88025304 9.43377788 13.94754772 11 16 C10.01 16 9.02 16 8 16 C3.74932174 11.47508444 0 6.29658895 0 0 Z " fill="#323169" transform="translate(667,500)"/>
<path d="M0 0 C0.75697404 2.46016562 0.98574939 4.21375911 0.8125 6.8125 C1.06670214 11.13393641 2.68094802 13.37648129 5 17 C1.83884224 15.63016497 1.0072908 15.0109362 -1 12 C-1.484375 9.58984375 -1.484375 9.58984375 -1.75 6.9375 C-1.84796875 6.05964844 -1.9459375 5.18179687 -2.046875 4.27734375 C-2 2 -2 2 0 0 Z " fill="#1B89EC" transform="translate(361,431)"/>
<path d="M0 0 C0.66 0.33 1.32 0.66 2 1 C0.13412277 2.32543706 -1.74314233 3.63485156 -3.625 4.9375 C-4.66914063 5.66839844 -5.71328125 6.39929688 -6.7890625 7.15234375 C-10.00598969 9.00344662 -12.33705863 9.65350555 -16 10 C-12.77333979 7.47478766 -9.39568033 5.34337749 -5.875 3.25 C-4.29332031 2.29867188 -4.29332031 2.29867188 -2.6796875 1.328125 C-1.79539062 0.88984375 -0.91109375 0.4515625 0 0 Z " fill="#30B2E2" transform="translate(419,369)"/>
<path d="M0 0 C0.66 0.33 1.32 0.66 2 1 C-1.63 4.3 -5.26 7.6 -9 11 C-9.66 10.67 -10.32 10.34 -11 10 C-3.70159453 2.51708428 -3.70159453 2.51708428 0 0 Z " fill="#794FB8" transform="translate(507,491)"/>
<path d="M0 0 C0.33 0.99 0.66 1.98 1 3 C-1.64 5.97 -4.28 8.94 -7 12 C-7.66 11.67 -8.32 11.34 -9 11 C-6.03 7.37 -3.06 3.74 0 0 Z " fill="#7D53C3" transform="translate(509,544)"/>
<path d="M0 0 C0.33 0.99 0.66 1.98 1 3 C-0.09283577 4.03295436 -1.19970579 5.05107835 -2.3125 6.0625 C-2.92738281 6.63097656 -3.54226563 7.19945312 -4.17578125 7.78515625 C-4.77777344 8.18605469 -5.37976563 8.58695312 -6 9 C-6.99 8.67 -7.98 8.34 -9 8 C-6.03 5.36 -3.06 2.72 0 0 Z " fill="#6261C5" transform="translate(517,482)"/>
<path d="M0 0 C0.33 0.66 0.66 1.32 1 2 C-0.09346881 3.34212062 -1.2001575 4.67347975 -2.3125 6 C-3.23482422 7.11375 -3.23482422 7.11375 -4.17578125 8.25 C-6 10 -6 10 -9 10 C-6.03 6.7 -3.06 3.4 0 0 Z " fill="#AD59BE" transform="translate(560,484)"/>
<path d="M0 0 C0.66 0 1.32 0 2 0 C0.61811547 3.21043882 -0.92421903 5.04936365 -3.625 7.25 C-4.57246094 8.03117188 -4.57246094 8.03117188 -5.5390625 8.828125 C-6.02117187 9.21484375 -6.50328125 9.6015625 -7 10 C-7.33 9.34 -7.66 8.68 -8 8 C-7.50628906 7.59007812 -7.01257813 7.18015625 -6.50390625 6.7578125 C-5.86324219 6.21898437 -5.22257812 5.68015625 -4.5625 5.125 C-3.92441406 4.59132813 -3.28632813 4.05765625 -2.62890625 3.5078125 C-0.89194996 2.0777243 -0.89194996 2.0777243 0 0 Z " fill="#8149BE" transform="translate(501,507)"/>
<path d="M0 0 C0.99 0.33 1.98 0.66 3 1 C-1.2837641 3.57025846 -5.1725201 5.58707905 -10 7 C-7.19527484 3.70032335 -3.83081791 1.91540896 0 0 Z " fill="#33B9DC" transform="translate(431,362)"/>
<path d="M0 0 C0.66 0.33 1.32 0.66 2 1 C0.88121617 2.17262904 -0.24523051 3.33795138 -1.375 4.5 C-2.00148438 5.1496875 -2.62796875 5.799375 -3.2734375 6.46875 C-5 8 -5 8 -7 8 C-5.50902342 4.2047869 -3.24299151 2.38957269 0 0 Z " fill="#2583E5" transform="translate(399,444)"/>
</svg>
