<?xml version="1.0" encoding="UTF-8" standalone="no" ?>
<!DOCTYPE svg PUBLIC "-//W3C//DTD SVG 1.1//EN" "http://www.w3.org/Graphics/SVG/1.1/DTD/svg11.dtd">
<svg xmlns="http://www.w3.org/2000/svg" xmlns:xlink="http://www.w3.org/1999/xlink" version="1.1" width="1280" height="1024" viewBox="0 0 1280 1024" xml:space="preserve">
<desc>Created with Fabric.js 5.3.0</desc>
<defs>
</defs>
<g transform="matrix(1 0 0 1 640 512)" id="background-logo"  >
<rect style="stroke: none; stroke-width: 0; stroke-dasharray: none; stroke-linecap: butt; stroke-dashoffset: 0; stroke-linejoin: miter; stroke-miterlimit: 4; fill: rgb(12,19,29); fill-rule: nonzero; opacity: 1;"  paint-order="stroke"  x="-640" y="-512" rx="0" ry="0" width="1280" height="1024" />
</g>
<g transform="matrix(1.9211538461538462 0 0 1.9211538461538462 640 395.6864080388972)" id="logo-logo"  >
<g style=""  paint-order="stroke"   >
		<g transform="matrix(0.917930923744532 0 0 0.9179309237445321 0 0)"  >
<g style=""  paint-order="stroke"   >
		<g transform="matrix(1 0 0 1 0 0)"  >
<linearGradient id="SVGID_2_24846" gradientUnits="userSpaceOnUse" gradientTransform="matrix(1 0 0 1 -100 -100)"  x1="0" y1="0" x2="0" y2="200">
<stop offset="0%" style="stop-color:rgb(23,234,217);stop-opacity: 1"/>
<stop offset="100%" style="stop-color:rgb(96,120,234);stop-opacity: 1"/>
</linearGradient>
<polygon style="stroke: none; stroke-width: 1; stroke-dasharray: none; stroke-linecap: butt; stroke-dashoffset: 0; stroke-linejoin: miter; stroke-miterlimit: 4; fill: url(#SVGID_2_24846); fill-rule: nonzero; opacity: 1;"  paint-order="stroke"  points="100,100 0,100 0,95.12 95.12,95.12 95.12,-95.12 -95.12,-95.12 -95.12,0 -100,0 -100,-100 100,-100 100,100 " />
</g>
</g>
</g>
</g>
</g>
<g transform="matrix(1.9211538461538462 0 0 1.9211538461538462 643.1699038461538 671.3393546189467)" id="text-logo"  >
<g style=""  paint-order="stroke"   >
		<g transform="matrix(1 0 0 1 0 0)" id="text-logo-path-0"  >
<path style="stroke: rgb(255,255,255); stroke-width: 0; stroke-dasharray: none; stroke-linecap: butt; stroke-dashoffset: 0; stroke-linejoin: miter; stroke-miterlimit: 4; fill: rgb(49,192,223); fill-rule: nonzero; opacity: 1;"  paint-order="stroke"  transform=" translate(-146.65499999999997, 17.049999999999997)" d="M 4.67 -30.25 L 4.67 -8.25 C 4.67 -0.88 8.86 0.55 14.03 0.55 L 15.02 0.55 L 16.5 4.95 L 20.35 4.95 L 18.7 -0.11 C 21.45 -1.04 23.38 -3.35 23.38 -8.25 L 23.38 -30.25 C 23.38 -37.62 19.25 -39.05 14.03 -39.05 C 8.86 -39.05 4.67 -37.62 4.67 -30.25 Z M 8.53 -9.35 L 8.53 -29.15 C 8.53 -34.16 10.67 -35.2 14.03 -35.2 C 17.38 -35.2 19.52 -34.16 19.52 -29.15 L 19.52 -9.35 C 19.52 -6.33 18.81 -4.79 17.38 -3.96 L 15.95 -8.36 L 12.1 -8.36 L 13.75 -3.3 C 10.62 -3.35 8.53 -4.46 8.53 -9.35 Z M 55.99 -9.35 L 55.99 -38.5 L 52.14 -38.5 L 52.14 -8.25 C 52.14 -0.88 56.32 0.55 61.49 0.55 C 66.72 0.55 70.84 -0.88 70.84 -8.25 L 70.84 -38.5 L 66.99 -38.5 L 66.99 -9.35 C 66.99 -4.34 64.84 -3.3 61.49 -3.3 C 58.13 -3.3 55.99 -4.34 55.99 -9.35 Z M 107.58 -38.5 L 98.78 -38.5 L 98.78 -35.2 L 101.25 -35.2 L 101.25 -3.3 L 98.78 -3.3 L 98.78 0 L 107.58 0 L 107.58 -3.3 L 105.1 -3.3 L 105.1 -35.2 L 107.58 -35.2 Z M 147.45 -35.2 L 132.5 -3.3 L 132.5 0 L 150.87 0 L 150.87 -3.3 L 136.34 -3.3 L 151.31 -35.2 L 151.31 -38.5 L 133.48 -38.5 L 133.48 -35.2 Z M 177.32 -30.25 L 177.32 -8.25 C 177.32 -0.88 181.5 0.55 186.67 0.55 C 191.89 0.55 196.02 -0.99 196.02 -8.25 L 196.02 -30.25 C 196.02 -37.62 191.89 -39.05 186.67 -39.05 C 181.5 -39.05 177.32 -37.62 177.32 -30.25 Z M 181.17 -9.35 L 181.17 -29.15 C 181.17 -34.16 183.31 -35.2 186.67 -35.2 C 190.02 -35.2 192.17 -34.16 192.17 -29.15 L 192.17 -9.35 C 192.17 -4.34 190.02 -3.3 186.67 -3.3 C 183.31 -3.3 181.17 -4.34 181.17 -9.35 Z M 225.33 0 L 229.18 0 L 229.18 -14.3 L 233.03 -14.3 L 239.91 0 L 244.03 0 L 236.99 -14.74 C 240.24 -15.56 242.38 -17.82 242.38 -23.1 L 242.38 -29.7 C 242.38 -37.07 238.26 -38.5 233.03 -38.5 L 225.33 -38.5 Z M 229.18 -17.6 L 229.18 -35.2 L 233.03 -35.2 C 236.39 -35.2 238.53 -34.16 238.53 -29.15 L 238.53 -23.65 C 238.53 -18.64 236.39 -17.6 233.03 -17.6 Z M 275.77 -14.85 L 275.77 0 L 279.62 0 L 279.62 -14.85 L 288.64 -38.5 L 284.79 -38.5 L 277.69 -19.91 L 270.6 -38.5 L 266.75 -38.5 Z" stroke-linecap="round" />
</g>
</g>
</g>
<g transform="matrix(1.9211538461538462 0 0 1.9211538461538462 640 405.67204308096467)" id="tagline-3a78d944-c0db-44d4-8ad5-60158c925687-logo"  >
<g style=""  paint-order="stroke"   >
		<g transform="matrix(1 0 0 1 0 0)" id="tagline-3a78d944-c0db-44d4-8ad5-60158c925687-logo-path-0"  >
<linearGradient id="SVGID_24847" gradientUnits="userSpaceOnUse" gradientTransform="matrix(1 0 0 1 6.460000000000001 -53.96)"  x1="-6.459963760375956" y1="-12.85463999999999" x2="-6.459963760375956" y2="73.14536000000001">
<stop offset="0%" style="stop-color:rgb(23,234,217);stop-opacity: 1"/>
<stop offset="100%" style="stop-color:rgb(96,120,234);stop-opacity: 1"/>
</linearGradient>
<path style="stroke: rgb(255,255,255); stroke-width: 0; stroke-dasharray: none; stroke-linecap: butt; stroke-dashoffset: 0; stroke-linejoin: miter; stroke-miterlimit: 4; fill: url(#SVGID_24847); fill-rule: nonzero; opacity: 1;"  paint-order="stroke"  transform=" translate(-19.38, 23.560000000000002)" d="M 6.46 -41.8 L 6.46 -11.4 C 6.46 -1.22 12.24 0.76 19.38 0.76 L 20.75 0.76 L 22.8 6.84 L 28.12 6.84 L 25.84 -0.15 C 29.64 -1.44 32.3 -4.64 32.3 -11.4 L 32.3 -41.8 C 32.3 -51.98 26.6 -53.96 19.38 -53.96 C 12.24 -53.96 6.46 -51.98 6.46 -41.8 Z M 11.78 -12.92 L 11.78 -40.28 C 11.78 -47.2 14.74 -48.64 19.38 -48.64 C 24.02 -48.64 26.98 -47.2 26.98 -40.28 L 26.98 -12.92 C 26.98 -8.74 25.99 -6.61 24.02 -5.47 L 22.04 -11.55 L 16.72 -11.55 L 19 -4.56 C 14.67 -4.64 11.78 -6.16 11.78 -12.92 Z" stroke-linecap="round" />
</g>
</g>
</g>
</svg>